# xmcd
#
# Track frame offsets:
#	150
#	17741
#	37540
#	57058
#	82983
#	96547
#	109575
#	136947
#	156859
#	181701
#	199875
#	216605
#	236253
#	253251
#	271596
#
# Disc length: 3912 seconds
#
# Revision: 1
# Processed by: cddbd v1.5.2PL0 Copyright (c) Steve Scherf et al.
# Submitted via: EZCDAudioConverter 1.3.1.1
#
DISCID=c00f460f
DTITLE=Canção and Louvor - Acontecimentos - Acústico
DYEAR=2010
DGENRE=Música Cristã
TTITLE0=Tirado das águas
TTITLE1=Nos mínimos detalhes
TTITLE2=Vai se cumprir
TTITLE3=Se falou tá falado
TTITLE4=Leilão
TTITLE5=Rico pobre
TTITLE6=Eu vou profetizar
TTITLE7=A morte que deu vida
TTITLE8=Abraão e Isaac
TTITLE9=CristoCristo.com
TTITLE10=Poema Divino
TTITLE11=A dez mil pés
TTITLE12=Palmeira
TTITLE13=Diferença
TTITLE14=Acontecimentos 
EXTD=
EXTT0=
EXTT1=
EXTT2=
EXTT3=
EXTT4=
EXTT5=
EXTT6=
EXTT7=
EXTT8=
EXTT9=
EXTT10=
EXTT11=
EXTT12=
EXTT13=
EXTT14=
PLAYORDER=
